<?xml version="1.0" encoding="UTF-8" standalone="no"?>
<!DOCTYPE svg PUBLIC "-//W3C//DTD SVG 1.1//EN" "http://www.w3.org/Graphics/SVG/1.1/DTD/svg11.dtd">
<svg width="100%" height="100%" viewBox="0 0 1418 1418" version="1.1" xmlns="http://www.w3.org/2000/svg" xmlns:xlink="http://www.w3.org/1999/xlink" xml:space="preserve" xmlns:serif="http://www.serif.com/" style="fill-rule:evenodd;clip-rule:evenodd;stroke-linejoin:round;stroke-miterlimit:1.41421;">
    <g transform="matrix(1,0,0,1,-0.611465,-27.9796)">
        <rect x="-170.911" y="105.177" width="1698.53" height="1208.83" style="fill:rgb(112,167,191);"/>
    </g>
    <g transform="matrix(1,0,0,1,8,0)">
        <path d="M1205.53,731.146L1296,731.146L1296,1177.95L1205.53,1177.95L1205.53,731.146ZM1089.87,731.146L1180.35,731.146L1180.35,1177.95L1089.87,1177.95L1089.87,731.146ZM119.265,708.661L209.741,708.661L209.741,1118.97L119.265,1118.97L119.265,708.661ZM418.468,681.611L427.604,681.611L427.604,606.758L439.272,606.758L439.272,536.255L445.758,536.255L445.758,606.758L457.427,606.758L457.427,681.611L466.563,681.611L466.563,1091.92L418.468,1091.92L418.468,681.611Z" style="fill:rgb(105,158,180);"/>
    </g>
    <g transform="matrix(1,0,0,1,0,10)">
        <g>
            <path d="M477.357,953.003L477.357,840.14L505.584,840.14L505.584,739.134L513.833,739.134L513.833,687.904L562.549,687.904L562.549,739.134L570.797,739.134L570.797,840.14L599.025,840.14L599.025,982.109L664.238,982.109L664.238,972.149C664.238,912.954 711.211,864.643 769.885,862.491L769.885,840.852L778.056,840.852L778.056,862.491C836.729,864.643 883.703,912.954 883.703,972.149L884.053,972.149L884.053,1002.74L920.471,1002.74L920.471,991.415L942.53,991.415L942.53,980.745L964.59,980.745L964.59,969.9L986.649,969.9L986.649,951.722L1008.71,951.722L1008.71,936.053L1032.5,936.053L1032.5,915.362L1040.67,915.362L1040.67,936.053L1067.86,936.053L1067.86,951.722L1078.35,951.722L1078.35,979.636L1127.06,979.636L1127.06,1004.22L1170.86,1004.22L1170.86,952.737L1261.34,952.737L1261.34,1004.22L1303.78,1004.22L1303.78,1266.82L1067.86,1266.82L1067.86,1242.23L1036.58,1242.23L1036.58,1214.32L1008.71,1214.32L1008.71,1221.69L986.649,1221.69L986.649,1232.53L964.59,1232.53L964.59,1243.2L928.477,1243.2L708.661,1243.2L708.661,1212.62L672.168,1212.62L672.168,1222.58L599.025,1222.58L599.025,1267.88L477.357,1267.88L409.725,1267.88L288.057,1267.88L-33.826,1267.88L-33.826,953.003L268.923,953.003L268.923,930.631L288.057,930.631L288.057,840.14L409.725,840.14L409.725,930.631L428.859,930.631L428.859,953.003L477.357,953.003Z" style="fill:rgb(83,128,146);"/>
        </g>
    </g>
    <g transform="matrix(1,0,0,1.65783,5.09826,-950.516)">
        <rect x="-56.547" y="1272.32" width="1622.21" height="202.254" style="fill:rgb(235,235,235);"/>
    </g>
    <g transform="matrix(0.893792,0,0,0.893792,466.737,215.184)">
        <g transform="matrix(0.13905,0,0,0.13905,696.134,651.864)">
            <g>
                <g transform="matrix(8.04623,0,0,8.04623,-8761.83,-6419.4)">
                    <g id="Head">
                        <path d="M1161.38,882.103C1155.53,882.103 1150.79,877.193 1150.79,871.145C1150.79,865.097 1155.53,860.186 1161.38,860.186C1167.22,860.186 1171.96,865.097 1171.96,871.145C1171.96,875.573 1169.42,879.391 1165.77,881.119L1165.77,884.088L1161.38,884.088L1161.38,882.103Z" style="fill:rgb(193,144,117);"/>
                    </g>
                </g>
                <path id="Hair1-grey" serif:id="Hair1 grey" d="M512.898,539.758C528.291,516.857 553.902,501.856 582.872,501.856C629.886,501.856 668.056,541.366 668.056,590.031C668.056,607.633 663.063,624.038 654.463,637.807C654.966,633.935 655.226,629.983 655.226,625.969C655.226,577.303 617.056,537.793 570.042,537.793C563.884,537.793 557.879,538.471 552.091,539.758L512.898,539.758Z" style="fill:rgb(157,109,101);"/>
                <g id="Leg-2" serif:id="Leg 2">
                    <g id="leg2_t" transform="matrix(0.981674,-0.19057,0.140604,0.724286,-49.1427,380.981)">
                        <path d="M519.515,1005.69C519.515,987.336 534.824,972.437 553.68,972.437C572.537,972.437 587.846,987.336 587.846,1005.69L587.846,1208.69C587.846,1227.05 572.537,1241.94 553.68,1241.94C534.824,1241.94 519.515,1227.05 519.515,1208.69L519.515,1005.69Z" style="fill:rgb(48,78,128);"/>
                    </g>
                    <g id="leg2_b" transform="matrix(0.734094,-0.679048,0.501007,0.54162,-249.191,974.486)">
                        <path d="M519.515,1005.69C519.515,987.336 534.824,972.437 553.68,972.437C572.537,972.437 587.846,987.336 587.846,1005.69L587.846,1208.69C587.846,1227.05 572.537,1241.94 553.68,1241.94C534.824,1241.94 519.515,1227.05 519.515,1208.69L519.515,1005.69Z" style="fill:rgb(48,78,128);"/>
                    </g>
                </g>
                <g id="Torso" transform="matrix(0.727509,0,0,0.891966,142.829,12.7068)">
                    <path d="M517.775,829.346C517.775,786.264 566.052,751.288 625.514,751.288C684.977,751.288 733.254,786.265 733.254,829.346L733.254,1064.95C733.254,1108.03 684.977,1143.01 625.514,1143.01C566.051,1143.01 517.775,1108.03 517.775,1064.95L517.775,829.346Z" style="fill:rgb(75,118,187);"/>
                </g>
                <g id="Arm-1" serif:id="Arm 1">
                    <g id="arm1_t" transform="matrix(0.623299,-0.0664085,0.0781663,0.733655,163.204,34.0626)">
                        <path d="M519.515,1005.69C519.515,987.336 534.824,972.437 553.68,972.437C572.537,972.437 587.846,987.336 587.846,1005.69L587.846,1208.69C587.846,1227.05 572.537,1241.94 553.68,1241.94C534.824,1241.94 519.515,1227.05 519.515,1208.69L519.515,1005.69Z" style="fill:rgb(69,110,174);"/>
                    </g>
                    <g id="arm1_b" transform="matrix(-0.612957,-0.131129,0.154346,-0.721483,755.506,1840.09)">
                        <path d="M519.515,1005.69C519.515,987.336 534.824,972.437 553.68,972.437C572.537,972.437 587.846,987.336 587.846,1005.69L587.846,1208.69C587.846,1227.05 572.537,1241.94 553.68,1241.94C534.824,1241.94 519.515,1227.05 519.515,1208.69L519.515,1005.69Z" style="fill:rgb(69,110,174);"/>
                    </g>
                </g>
                <g id="Leg-1" serif:id="Leg 1">
                    <g id="leg1_b" transform="matrix(0.999264,-0.0383671,0.0283076,0.737264,-77.0626,403.138)">
                        <path d="M519.515,1005.69C519.515,987.336 534.824,972.437 553.68,972.437C572.537,972.437 587.846,987.336 587.846,1005.69L587.846,1208.69C587.846,1227.05 572.537,1241.94 553.68,1241.94C534.824,1241.94 519.515,1227.05 519.515,1208.69L519.515,1005.69Z" style="fill:rgb(48,78,128);"/>
                    </g>
                    <g id="leg1_t" transform="matrix(0.878979,0.47686,-0.351831,0.648518,440.459,84.2383)">
                        <path d="M519.515,1005.69C519.515,987.336 534.824,972.437 553.68,972.437C572.537,972.437 587.846,987.336 587.846,1005.69L587.846,1208.69C587.846,1227.05 572.537,1241.94 553.68,1241.94C534.824,1241.94 519.515,1227.05 519.515,1208.69L519.515,1005.69Z" style="fill:rgb(48,78,128);"/>
                    </g>
                </g>
            </g>
            <g id="Builder-HEad" serif:id="Builder HEad">
                <g transform="matrix(0.865725,0,0,1,69.8705,2.69238)">
                    <path d="M686.782,557.467L494.172,557.467C494.172,505.845 537.325,463.935 590.477,463.935C643.629,463.935 686.782,505.845 686.782,557.467Z" style="fill:rgb(244,180,25);"/>
                </g>
                <g transform="matrix(1,0,0,1,-2.72412,-1.96586)">
                    <rect x="483.289" y="560.84" width="184.767" height="5.01" style="fill:rgb(244,180,25);"/>
                </g>
            </g>
        </g>
        <g transform="matrix(1,0,0,1,63.8706,-363.297)">
            <path d="M517.226,1222.68L517.226,1412.32L316.942,1412.32L316.942,1222.68L517.226,1222.68ZM483.985,1223.39L392.49,1223.39L392.49,1319.71L483.985,1319.71L483.985,1223.39Z" style="fill:rgb(128,128,128);"/>
            <path d="M539.079,1204.75L539.079,1423.98L302.858,1423.98L302.858,1204.75L539.079,1204.75ZM469.901,1235.04L378.406,1235.04L378.406,1331.36L469.901,1331.36L469.901,1235.04Z" style="fill:rgb(146,147,150);"/>
            <path d="M539.079,1204.75L539.079,1423.98L302.858,1423.98L302.858,1204.75L539.079,1204.75ZM469.901,1235.04L378.406,1235.04L378.406,1331.36L469.901,1331.36L469.901,1235.04Z" style="fill:rgb(146,147,150);"/>
            <g transform="matrix(1,0,0,1,41.9488,0)">
                <path d="M309.553,975.771L379.02,975.771L379.02,960.723L419.965,960.723L419.965,944.68L497.13,944.68L497.13,990.818L309.553,990.818L309.553,975.771Z" style="fill:rgb(139,137,137);"/>
            </g>
            <rect x="381.353" y="1107.95" width="144.182" height="29.409" style="fill:rgb(139,137,137);"/>
            <g transform="matrix(1,0,0,1,7.58262,-206.412)">
                <path d="M539.079,1204.75L539.079,1423.98L302.858,1423.98L302.858,1204.75L539.079,1204.75ZM469.901,1235.04L378.406,1235.04L378.406,1331.36L469.901,1331.36L469.901,1235.04Z" style="fill:rgb(146,147,150);"/>
            </g>
            <path d="M562.115,1055.53L585.737,1055.53L585.737,1067.34L614.626,1067.34L614.626,1124.95L703.621,1124.95L703.621,1142.81L725.954,1142.81L725.954,1159.62L748.991,1159.62L748.991,1171.43L772.613,1171.43L772.613,1183.24L775.299,1183.24L775.299,1217.56L539.079,1217.56L539.079,1043.72L562.115,1043.72L562.115,1055.53Z" style="fill:rgb(146,147,150);"/>
        </g>
        <path d="M839.17,1051.25L755.36,1051.25L755.36,907.124L678.961,907.124L678.961,1051.25L602.949,1051.25L602.949,841.457L839.17,841.457L839.17,1051.25Z" style="fill:rgb(146,147,150);"/>
        <path d="M359.146,1051.25L359.146,627.521L361.324,627.521L601.557,513.252L601.872,512.589L602.411,512.845L602.949,512.589L603.264,513.25L843.917,627.521L846.752,627.521L846.752,1051.25L831.587,1051.25L831.587,849.039L610.532,849.039L610.532,1051.25L595.367,1051.25L595.367,849.039L374.311,849.039L374.311,1051.25L359.146,1051.25ZM595.367,642.627L374.311,642.627L374.311,833.874L595.367,833.874L595.367,642.627ZM831.587,642.627L610.532,642.627L610.532,833.874L831.587,833.874L831.587,642.627ZM396.753,627.462L808.438,627.462L602.417,529.636L396.753,627.462Z" style="fill:rgb(9,0,49);"/>
    </g>
    <g transform="matrix(1,0,0,0.183376,5.09826,906.919)">
        <rect x="-56.547" y="1272.32" width="1622.21" height="202.254" style="fill:rgb(193,193,195);"/>
    </g>
    <g transform="matrix(0.414965,0,0,0.414965,542.088,621.714)">
        <rect x="126.732" y="1226.45" width="64.148" height="23.249" style="fill:rgb(241,88,43);"/>
        <g transform="matrix(1,0,0,1,384.888,0)">
            <rect x="126.732" y="1226.45" width="64.148" height="23.249" style="fill:rgb(241,88,43);"/>
        </g>
        <g transform="matrix(1,0,0,1,241.25,-23.2492)">
            <rect x="126.732" y="1226.45" width="64.148" height="23.249" style="fill:rgb(241,88,43);"/>
        </g>
        <g transform="matrix(1,0,0,1,112.954,-23.2492)">
            <rect x="126.732" y="1226.45" width="64.148" height="23.249" style="fill:rgb(241,88,43);"/>
        </g>
        <g transform="matrix(1,0,0,1,80.8801,-46.4983)">
            <rect x="126.732" y="1226.45" width="64.148" height="23.249" style="fill:rgb(241,88,43);"/>
        </g>
        <g transform="matrix(1,0,0,1,177.102,-69.7475)">
            <rect x="126.732" y="1226.45" width="64.148" height="23.249" style="fill:rgb(241,88,43);"/>
        </g>
        <g transform="matrix(1,0,0,1,185.76,-116.246)">
            <rect x="126.732" y="1226.45" width="64.148" height="23.249" style="fill:rgb(241,88,43);"/>
        </g>
        <g transform="matrix(1,0,0,1,64.148,0)">
            <rect x="126.732" y="1226.45" width="64.148" height="23.249" style="fill:rgb(141,48,12);"/>
        </g>
        <g transform="matrix(1,0,0,1,305.398,-23.2492)">
            <rect x="126.732" y="1226.45" width="64.148" height="23.249" style="fill:rgb(141,48,12);"/>
        </g>
        <g transform="matrix(1,0,0,1,217.834,-92.9967)">
            <rect x="126.732" y="1226.45" width="64.148" height="23.249" style="fill:rgb(141,48,12);"/>
        </g>
        <g transform="matrix(1,0,0,1,112.954,-69.7475)">
            <rect x="126.732" y="1226.45" width="64.148" height="23.249" style="fill:rgb(141,48,12);"/>
        </g>
        <g transform="matrix(1,0,0,1,209.176,-46.4983)">
            <rect x="126.732" y="1226.45" width="64.148" height="23.249" style="fill:rgb(141,48,12);"/>
        </g>
        <g transform="matrix(1,0,0,1,256.592,0)">
            <rect x="126.732" y="1226.45" width="64.148" height="23.249" style="fill:rgb(141,48,12);"/>
        </g>
        <g transform="matrix(1,0,0,1,128.296,0)">
            <rect x="126.732" y="1226.45" width="64.148" height="23.249" style="fill:rgb(192,70,32);"/>
        </g>
        <g transform="matrix(1,0,0,1,241.25,-69.7475)">
            <rect x="126.732" y="1226.45" width="64.148" height="23.249" style="fill:rgb(192,70,32);"/>
        </g>
        <g transform="matrix(1,0,0,1,320.74,0)">
            <rect x="126.732" y="1226.45" width="64.148" height="23.249" style="fill:rgb(192,70,32);"/>
        </g>
        <g transform="matrix(1,0,0,1,273.324,-46.4983)">
            <rect x="126.732" y="1226.45" width="64.148" height="23.249" style="fill:rgb(192,70,32);"/>
        </g>
        <g transform="matrix(1,0,0,1,177.102,-23.2492)">
            <rect x="126.732" y="1226.45" width="64.148" height="23.249" style="fill:rgb(192,70,32);"/>
        </g>
        <g transform="matrix(1,0,0,1,153.686,-92.9967)">
            <rect x="126.732" y="1226.45" width="64.148" height="23.249" style="fill:rgb(192,70,32);"/>
        </g>
        <g transform="matrix(1,0,0,1,192.444,0)">
            <rect x="126.732" y="1226.45" width="64.148" height="23.249" style="fill:rgb(165,59,23);"/>
        </g>
        <g transform="matrix(1,0,0,1,369.546,-23.2492)">
            <rect x="126.732" y="1226.45" width="64.148" height="23.249" style="fill:rgb(165,59,23);"/>
        </g>
        <g transform="matrix(1,0,0,1,48.8061,-23.2492)">
            <rect x="126.732" y="1226.45" width="64.148" height="23.249" style="fill:rgb(165,59,23);"/>
        </g>
        <g transform="matrix(1,0,0,1,145.028,-46.4983)">
            <rect x="126.732" y="1226.45" width="64.148" height="23.249" style="fill:rgb(165,59,23);"/>
        </g>
    </g>
    <g transform="matrix(0.188816,0,0,0.197037,107.824,889.91)">
        <path d="M84.97,1282.42C87.01,1282.38 88.71,1282.34 89.882,1282.37C92.624,1282.45 98.414,1283.27 102.439,1283.41L83.879,1283.41L84.97,1282.42ZM104.433,1283.41C105.035,1283.39 105.544,1283.32 105.93,1283.22C119.35,1279.59 197.244,1242.47 203.303,1233.05C218.161,1209.94 224.717,1174.35 250.331,1158.88C268.585,1147.85 294.807,1151.84 312.095,1139.33C326.644,1128.8 323.9,1099.48 336.776,1085.76C357.921,1063.22 391.071,1055.38 413.844,1034.42C423.757,1025.3 456.881,987.957 461.023,982.084C475.255,961.904 485.813,938.35 501.784,919.43C528.708,887.532 564.273,875.52 599.97,856.512C612.677,849.745 616.199,833.277 622.872,821.906C636.769,798.227 668.795,765.772 698.686,765.772L694.852,790.529C699.962,801.121 714.174,804.982 721.576,813.771C724.02,816.674 724.951,823.25 728.304,824.636C733.222,826.67 747.071,823.616 750.386,826.931C757.972,834.517 762.419,850.808 768.004,860.043C782.076,883.31 805.167,911.214 827.455,928.807C849.154,945.935 895.828,947.515 906.781,959.232C910.404,963.108 909.064,970.27 910.911,975.021C913.696,982.187 919.625,987.162 922.438,994.317C928.381,1009.43 927.817,1025.86 938.908,1038.92C952.939,1055.43 983.759,1071.08 1004.75,1077.86C1013.88,1080.8 1027.97,1080.85 1035.85,1086.54C1037.99,1088.09 1049.85,1117.17 1053.62,1122.13C1061.93,1133.06 1079.65,1136.66 1090.9,1144.1C1099.64,1149.88 1102.75,1160.56 1111.38,1166.71C1126.53,1177.5 1136.48,1195.53 1151.05,1205.39C1178.21,1223.79 1209.97,1234.05 1236.42,1253.61C1242.61,1258.18 1249.72,1260.84 1256.93,1263.2L1279.13,1283.41L104.433,1283.41Z" style="fill:rgb(231,221,155);"/>
    </g>
    <g transform="matrix(0.124282,0,0,0.124282,382.81,978.967)">
        <g>
            <g id="Head1" serif:id="Head">
                <g transform="matrix(0.733518,0,0,1.29705,141.348,-202.834)">
                    <rect x="601.927" y="668.886" width="48.139" height="22.695" style="fill:rgb(218,162,132);"/>
                </g>
                <g transform="matrix(1,0,0,1,-64.8791,0.3324)">
                    <ellipse cx="647.751" cy="589.699" rx="85.184" ry="88.176" style="fill:rgb(218,162,132);"/>
                </g>
            </g>
            <path id="Hair1-grey1" serif:id="Hair1 grey" d="M512.898,539.758C528.291,516.857 553.902,501.856 582.872,501.856C629.886,501.856 668.056,541.366 668.056,590.031C668.056,607.633 663.063,624.038 654.463,637.807C654.966,633.935 655.226,629.983 655.226,625.969C655.226,577.303 617.056,537.793 570.042,537.793C563.884,537.793 557.879,538.471 552.091,539.758L512.898,539.758Z" style="fill:rgb(146,147,149);"/>
            <g id="Leg-21" serif:id="Leg 2">
                <g id="leg2_t1" serif:id="leg2_t" transform="matrix(0.981674,-0.19057,0.140604,0.724286,-49.1427,380.981)">
                    <path d="M519.515,1005.69C519.515,987.336 534.824,972.437 553.68,972.437C572.537,972.437 587.846,987.336 587.846,1005.69L587.846,1208.69C587.846,1227.05 572.537,1241.94 553.68,1241.94C534.824,1241.94 519.515,1227.05 519.515,1208.69L519.515,1005.69Z" style="fill:rgb(48,78,128);"/>
                </g>
                <g id="leg2_b1" serif:id="leg2_b" transform="matrix(0.734094,-0.679048,0.501007,0.54162,-249.191,974.486)">
                    <path d="M519.515,1005.69C519.515,987.336 534.824,972.437 553.68,972.437C572.537,972.437 587.846,987.336 587.846,1005.69L587.846,1208.69C587.846,1227.05 572.537,1241.94 553.68,1241.94C534.824,1241.94 519.515,1227.05 519.515,1208.69L519.515,1005.69Z" style="fill:rgb(48,78,128);"/>
                </g>
            </g>
            <g id="Torso1" serif:id="Torso" transform="matrix(0.727509,0,0,0.891966,142.829,12.7068)">
                <path d="M517.775,829.346C517.775,786.264 566.052,751.288 625.514,751.288C684.977,751.288 733.254,786.265 733.254,829.346L733.254,1064.95C733.254,1108.03 684.977,1143.01 625.514,1143.01C566.051,1143.01 517.775,1108.03 517.775,1064.95L517.775,829.346Z" style="fill:rgb(75,118,187);"/>
            </g>
            <g id="Arm-11" serif:id="Arm 1">
                <g id="arm1_t1" serif:id="arm1_t" transform="matrix(0.550967,0.298908,-0.351831,0.648518,632.585,-88.1012)">
                    <path d="M519.515,1005.69C519.515,987.336 534.824,972.437 553.68,972.437C572.537,972.437 587.846,987.336 587.846,1005.69L587.846,1208.69C587.846,1227.05 572.537,1241.94 553.68,1241.94C534.824,1241.94 519.515,1227.05 519.515,1208.69L519.515,1005.69Z" style="fill:rgb(69,110,174);"/>
                </g>
                <g id="arm1_b1" serif:id="arm1_b" transform="matrix(0.538927,-0.320108,0.376784,0.634345,-245.923,271.868)">
                    <path d="M519.515,1005.69C519.515,987.336 534.824,972.437 553.68,972.437C572.537,972.437 587.846,987.336 587.846,1005.69L587.846,1208.69C587.846,1227.05 572.537,1241.94 553.68,1241.94C534.824,1241.94 519.515,1227.05 519.515,1208.69L519.515,1005.69Z" style="fill:rgb(69,110,174);"/>
                </g>
            </g>
            <g id="Leg-11" serif:id="Leg 1">
                <g id="leg1_b1" serif:id="leg1_b" transform="matrix(0.999264,-0.0383671,0.0283076,0.737264,-77.0626,403.138)">
                    <path d="M519.515,1005.69C519.515,987.336 534.824,972.437 553.68,972.437C572.537,972.437 587.846,987.336 587.846,1005.69L587.846,1208.69C587.846,1227.05 572.537,1241.94 553.68,1241.94C534.824,1241.94 519.515,1227.05 519.515,1208.69L519.515,1005.69Z" style="fill:rgb(48,78,128);"/>
                </g>
                <g id="leg1_t1" serif:id="leg1_t" transform="matrix(0.878979,0.47686,-0.351831,0.648518,440.459,84.2383)">
                    <path d="M519.515,1005.69C519.515,987.336 534.824,972.437 553.68,972.437C572.537,972.437 587.846,987.336 587.846,1005.69L587.846,1208.69C587.846,1227.05 572.537,1241.94 553.68,1241.94C534.824,1241.94 519.515,1227.05 519.515,1208.69L519.515,1005.69Z" style="fill:rgb(48,78,128);"/>
                </g>
            </g>
        </g>
        <g id="Builder-HEad1" serif:id="Builder HEad">
            <g transform="matrix(0.865725,0,0,1,69.8705,2.69238)">
                <path d="M686.782,557.467L494.172,557.467C494.172,505.845 537.325,463.935 590.477,463.935C643.629,463.935 686.782,505.845 686.782,557.467Z" style="fill:rgb(244,180,25);"/>
            </g>
            <g transform="matrix(1,0,0,1,-2.72412,-1.96586)">
                <rect x="483.289" y="560.84" width="184.767" height="5.01" style="fill:rgb(244,180,25);"/>
            </g>
        </g>
    </g>
    <g transform="matrix(0.170479,0,0,0.170479,451.037,920.656)">
        <g transform="matrix(0.745668,0,0,0.845083,40.3358,105.252)">
            <rect x="158.595" y="997.476" width="47.305" height="419.847" style="fill:rgb(130,101,71);"/>
        </g>
        <g transform="matrix(0.745668,0,0,0.845083,716.296,105.252)">
            <rect x="158.595" y="997.476" width="47.305" height="419.847" style="fill:rgb(130,101,71);"/>
        </g>
        <g>
            <g>
                <g transform="matrix(1,0,0,1,-15.9345,0.592737)">
                    <rect x="136.027" y="964.049" width="784.002" height="180.987" style="fill:rgb(250,210,67);"/>
                </g>
                <path d="M120.092,1098.6L254.05,964.642L304.16,964.642L123.173,1145.63L120.092,1145.63L120.092,1098.6ZM224.432,1145.63L174.322,1145.63L355.309,964.642L405.419,964.642L224.432,1145.63ZM325.432,1145.63L275.322,1145.63L456.309,964.642L506.419,964.642L325.432,1145.63ZM427.432,1145.63L377.322,1145.63L558.309,964.642L608.419,964.642L427.432,1145.63ZM530.432,1145.63L480.322,1145.63L661.309,964.642L711.419,964.642L530.432,1145.63ZM634.432,1145.63L584.322,1145.63L765.309,964.642L815.419,964.642L634.432,1145.63ZM904.094,978.966L737.432,1145.63L687.322,1145.63L868.309,964.642L904.094,964.642L904.094,978.966ZM904.094,1081.97L840.432,1145.63L790.322,1145.63L904.094,1031.86L904.094,1081.97ZM120.092,1056.5L120.092,1006.39L161.844,964.642L211.954,964.642L120.092,1056.5Z"/>
            </g>
            <g transform="matrix(1,0,0,1,-0.0386146,-3.73309)">
                <ellipse cx="176.271" cy="989.131" rx="6.617" ry="6.532" style="fill:rgb(187,196,201);"/>
            </g>
            <g transform="matrix(1,0,0,1,-0.0386146,66.004)">
                <ellipse cx="176.271" cy="989.131" rx="6.617" ry="6.532" style="fill:rgb(187,196,201);"/>
            </g>
            <g transform="matrix(1,0,0,1,-0.0386146,140.249)">
                <ellipse cx="176.271" cy="989.131" rx="6.617" ry="6.532" style="fill:rgb(187,196,201);"/>
            </g>
            <g transform="matrix(1,0,0,1,675.921,133.717)">
                <ellipse cx="176.271" cy="989.131" rx="6.617" ry="6.532" style="fill:rgb(187,196,201);"/>
            </g>
            <g transform="matrix(1,0,0,1,675.921,66.004)">
                <ellipse cx="176.271" cy="989.131" rx="6.617" ry="6.532" style="fill:rgb(187,196,201);"/>
            </g>
            <g transform="matrix(1,0,0,1,675.921,-3.73309)">
                <ellipse cx="176.271" cy="989.131" rx="6.617" ry="6.532" style="fill:rgb(187,196,201);"/>
            </g>
        </g>
    </g>
    <g transform="matrix(0.929647,0,0,0.929647,15.7377,-162.316)">
        <g>
            <g transform="matrix(1.10895,0,0,1.43792,53.7863,-620.589)">
                <rect x="245.053" y="1400.84" width="106.506" height="16.428" style="fill:rgb(29,41,67);"/>
            </g>
            <g transform="matrix(1,0,0,1,88.9497,-0.0314379)">
                <path d="M354.698,1393.73L236.588,1393.73L246.679,1381.92L344.606,1381.92L354.698,1393.73Z" style="fill:rgb(251,210,68);"/>
            </g>
        </g>
        <g>
            <g>
                <g>
                    <g transform="matrix(1,0.944743,-0.686738,0.726905,1006.93,71.4979)">
                        <rect x="264.258" y="1333.37" width="62.188" height="5.865" style="fill:rgb(251,210,68);"/>
                    </g>
                    <g>
                        <g transform="matrix(1,0,0,1,88.9497,-0.0314379)">
                            <path d="M317.405,1243.12L264.258,1201.74L267.861,1197.12L326.446,1242.72L326.139,1243.12L326.737,1243.12L326.737,1248.98L275.396,1248.98L324.857,1287.48L326.446,1287.48L326.446,1293.35L264.258,1293.35L264.258,1287.48L315.308,1287.48L265.847,1248.98L264.549,1248.98L264.549,1247.97L264.258,1247.74L264.549,1247.37L264.549,1243.12L317.405,1243.12Z" style="fill:rgb(251,210,68);"/>
                        </g>
                        <g transform="matrix(1,0,0,1,88.9497,-89.672)">
                            <path d="M317.405,1243.12L264.258,1201.74L267.861,1197.12L326.446,1242.72L326.139,1243.12L326.737,1243.12L326.737,1248.98L275.396,1248.98L324.857,1287.48L326.446,1287.48L326.446,1293.35L264.258,1293.35L264.258,1287.48L315.308,1287.48L265.847,1248.98L264.549,1248.98L264.549,1247.97L264.258,1247.74L264.549,1247.37L264.549,1243.12L317.405,1243.12Z" style="fill:rgb(251,210,68);"/>
                        </g>
                        <g transform="matrix(1,0,0,1,88.9497,-179.26)">
                            <path d="M317.405,1243.12L264.258,1201.74L267.861,1197.12L326.446,1242.72L326.139,1243.12L326.737,1243.12L326.737,1248.98L275.396,1248.98L324.857,1287.48L326.446,1287.48L326.446,1293.35L264.258,1293.35L264.258,1287.48L315.308,1287.48L265.847,1248.98L264.549,1248.98L264.549,1247.97L264.258,1247.74L264.549,1247.37L264.549,1243.12L317.405,1243.12Z" style="fill:rgb(251,210,68);"/>
                        </g>
                        <g transform="matrix(1,0,0,1,88.9497,-269.187)">
                            <path d="M317.405,1243.12L264.258,1201.74L267.861,1197.12L326.446,1242.72L326.139,1243.12L326.737,1243.12L326.737,1248.98L275.396,1248.98L324.857,1287.48L326.446,1287.48L326.446,1293.35L264.258,1293.35L264.258,1287.48L315.308,1287.48L265.847,1248.98L264.549,1248.98L264.549,1247.97L264.258,1247.74L264.549,1247.37L264.549,1243.12L317.405,1243.12Z" style="fill:rgb(251,210,68);"/>
                        </g>
                        <g transform="matrix(1,0,0,1,89.0951,-358.817)">
                            <path d="M317.405,1243.12L264.258,1201.74L267.861,1197.12L326.446,1242.72L326.139,1243.12L326.737,1243.12L326.737,1248.98L275.396,1248.98L324.857,1287.48L326.446,1287.48L326.446,1293.35L264.258,1293.35L264.258,1287.48L315.308,1287.48L265.847,1248.98L264.549,1248.98L264.549,1247.97L264.258,1247.74L264.549,1247.37L264.549,1243.12L317.405,1243.12Z" style="fill:rgb(251,210,68);"/>
                        </g>
                        <g transform="matrix(1,0,0,1,88.9497,-448.563)">
                            <path d="M317.405,1243.12L264.258,1201.74L267.861,1197.12L326.446,1242.72L326.139,1243.12L326.737,1243.12L326.737,1248.98L275.396,1248.98L324.857,1287.48L326.446,1287.48L326.446,1293.35L264.258,1293.35L264.258,1287.48L315.308,1287.48L265.847,1248.98L264.549,1248.98L264.549,1247.97L264.258,1247.74L264.549,1247.37L264.549,1243.12L317.405,1243.12Z" style="fill:rgb(251,210,68);"/>
                        </g>
                    </g>
                </g>
                <g transform="matrix(1,0,-5.55112e-17,1,88.9497,-584.814)">
                    <g>
                        <rect x="264.258" y="1333.37" width="62.188" height="5.865" style="fill:rgb(251,210,68);"/>
                    </g>
                </g>
            </g>
            <g transform="matrix(1.17076,0,0,13.4992,110.663,-17271.9)">
                <rect x="256.646" y="1334.41" width="7.282" height="47.509" style="fill:rgb(251,210,68);"/>
            </g>
            <g transform="matrix(1.21279,0,0,13.4992,37.5347,-17271.9)">
                <rect x="256.646" y="1334.41" width="7.282" height="47.509" style="fill:rgb(251,210,68);"/>
            </g>
        </g>
        <g>
            <g transform="matrix(0.69635,-0.182119,0.253023,0.96746,-44.8143,239.362)">
                <rect x="58.582" y="399.097" width="389.639" height="5.067" style="fill:rgb(29,41,67);"/>
            </g>
            <g transform="matrix(1.00051,0.176416,-0.173648,0.984808,411.474,141.563)">
                <rect x="58.582" y="399.097" width="389.639" height="5.067" style="fill:rgb(29,41,67);"/>
            </g>
            <g>
                <rect x="101.653" y="663.607" width="85.078" height="40.691"/>
                <rect x="101.653" y="683.952" width="85.078" height="7.948" style="fill:rgb(251,210,68);"/>
                <path d="M101.653,689.456L107.156,683.952L114.804,683.952L106.856,691.9L101.653,691.9L101.653,689.456ZM118.667,691.9L111.019,691.9L118.967,683.952L126.615,683.952L118.667,691.9ZM130.478,691.9L122.83,691.9L130.778,683.952L138.426,683.952L130.478,691.9ZM142.289,691.9L134.641,691.9L142.589,683.952L150.237,683.952L142.289,691.9ZM154.1,691.9L146.452,691.9L154.4,683.952L162.048,683.952L154.1,691.9ZM165.911,691.9L158.263,691.9L166.211,683.952L173.859,683.952L165.911,691.9ZM177.722,691.9L170.074,691.9L178.022,683.952L185.67,683.952L177.722,691.9ZM186.73,691.9L181.885,691.9L186.73,687.055L186.73,691.9Z"/>
            </g>
            <g>
                <g transform="matrix(0.896317,0,0,1,84.0017,0)">
                    <path d="M835.049,893.892C835.049,892.674 833.946,891.684 832.586,891.684L805.697,891.684C804.337,891.684 803.234,892.674 803.234,893.892L803.234,898.308C803.234,899.526 804.337,900.516 805.697,900.516L832.586,900.516C833.946,900.516 835.049,899.526 835.049,898.308L835.049,893.892Z" style="fill:rgb(208,174,57);"/>
                </g>
                <rect x="807.259" y="900.516" width="21.727" height="4.176" style="fill:rgb(29,41,67);"/>
                <path d="M814.505,891.684L809.37,891.684L772.949,670.335L777.949,669.512L814.505,891.684Z" style="fill:rgb(29,41,67);"/>
                <path d="M821.662,891.684L858.044,669.512L863.044,670.331L826.796,891.684L821.662,891.684Z" style="fill:rgb(29,41,67);"/>
                <g transform="matrix(-1,-1.22465e-16,1.22465e-16,-1,1113.4,2057.34)">
                    <path d="M354.698,1393.73L236.588,1393.73L246.679,1381.92L344.606,1381.92L354.698,1393.73Z" style="fill:rgb(208,174,57);"/>
                </g>
            </g>
            <g transform="matrix(1,0,0,1,22.3466,0.454021)">
                <g transform="matrix(0.474653,-0.474653,0.707107,0.707107,-560.295,583.159)">
                    <rect x="601.933" y="507.413" width="85.986" height="6.087" style="fill:white;"/>
                </g>
                <g transform="matrix(0.474653,-0.474653,0.707107,0.707107,-477.084,584.235)">
                    <rect x="601.933" y="507.413" width="85.986" height="6.087" style="fill:white;"/>
                </g>
                <g transform="matrix(0.499681,0.499681,-0.707107,0.707107,186.398,-45.2136)">
                    <rect x="601.933" y="507.413" width="85.986" height="6.087" style="fill:white;"/>
                </g>
                <g transform="matrix(0.499681,0.499681,-0.707107,0.707107,270.992,-45.2136)">
                    <rect x="601.933" y="507.413" width="85.986" height="6.087" style="fill:white;"/>
                </g>
            </g>
            <g>
                <g transform="matrix(0.474653,-0.474653,0.707107,0.707107,-165.143,584.235)">
                    <rect x="601.933" y="507.413" width="85.986" height="6.087" style="fill:white;"/>
                </g>
                <g transform="matrix(0.474653,-0.474653,0.707107,0.707107,-80.2128,584.235)">
                    <rect x="601.933" y="507.413" width="85.986" height="6.087" style="fill:white;"/>
                </g>
                <g transform="matrix(0.474653,-0.474653,0.707107,0.707107,4.44902,584.235)">
                    <rect x="601.933" y="507.413" width="85.986" height="6.087" style="fill:white;"/>
                </g>
                <g transform="matrix(0.474653,-0.474653,0.707107,0.707107,90.327,583.159)">
                    <rect x="601.933" y="507.413" width="85.986" height="6.087" style="fill:white;"/>
                </g>
                <g transform="matrix(0.474653,-0.474653,0.707107,0.707107,174.871,583.159)">
                    <rect x="601.933" y="507.413" width="85.986" height="6.087" style="fill:white;"/>
                </g>
                <g transform="matrix(0.474653,-0.474653,0.707107,0.707107,259.05,583.159)">
                    <rect x="601.933" y="507.413" width="85.986" height="6.087" style="fill:white;"/>
                </g>
                <g transform="matrix(0.474653,-0.474653,0.707107,0.707107,343.056,584.235)">
                    <rect x="601.933" y="507.413" width="85.986" height="6.087" style="fill:white;"/>
                </g>
                <g transform="matrix(0.499681,0.499681,-0.707107,0.707107,583.044,-45.2136)">
                    <rect x="601.933" y="507.413" width="85.986" height="6.087" style="fill:white;"/>
                </g>
                <g transform="matrix(0.499681,0.499681,-0.707107,0.707107,667.415,-45.2136)">
                    <rect x="601.933" y="507.413" width="85.986" height="6.087" style="fill:white;"/>
                </g>
                <g transform="matrix(0.499681,0.499681,-0.707107,0.707107,752.27,-45.2136)">
                    <rect x="601.933" y="507.413" width="85.986" height="6.087" style="fill:white;"/>
                </g>
                <g transform="matrix(0.499681,0.499681,-0.707107,0.707107,836.481,-46.2896)">
                    <rect x="601.933" y="507.413" width="85.986" height="6.087" style="fill:white;"/>
                </g>
                <g transform="matrix(0.499681,0.499681,-0.707107,0.707107,921.424,-45.2136)">
                    <rect x="601.933" y="507.413" width="85.986" height="6.087" style="fill:white;"/>
                </g>
                <g transform="matrix(0.499681,0.499681,-0.707107,0.707107,1005.1,-46.2896)">
                    <rect x="601.933" y="507.413" width="85.986" height="6.087" style="fill:white;"/>
                </g>
                <g transform="matrix(0.499681,0.499681,-0.707107,0.707107,1091.17,-45.2136)">
                    <rect x="601.933" y="507.413" width="85.986" height="6.087" style="fill:white;"/>
                </g>
            </g>
            <g>
                <g transform="matrix(2.15711,0,0,0.932171,-181.672,58.4121)">
                    <rect x="109.473" y="640.362" width="489.316" height="8.869" style="fill:rgb(251,210,68);"/>
                </g>
                <g transform="matrix(1.18862,0,0,0.932171,356.656,16.7427)">
                    <rect x="109.473" y="640.362" width="489.316" height="8.869" style="fill:rgb(251,210,68);"/>
                </g>
                <g transform="matrix(0.382576,0,0,0.932171,54.4372,16.7427)">
                    <rect x="109.473" y="640.362" width="489.316" height="8.869" style="fill:rgb(251,210,68);"/>
                </g>
                <g transform="matrix(0.707107,0.707107,-0.863173,0.863173,1429.17,-281.653)">
                    <rect x="377.955" y="727.627" width="58.87" height="4.838" style="fill:rgb(251,210,68);"/>
                </g>
                <g transform="matrix(0.707107,-0.707107,0.863173,0.863173,-450.034,294.484)">
                    <rect x="377.955" y="727.627" width="58.87" height="4.838" style="fill:rgb(251,210,68);"/>
                </g>
                <g transform="matrix(0.707107,-0.707107,0.863173,0.863173,-840.848,294.484)">
                    <path d="M436.825,727.627L377.955,727.627L377.955,732.465L436.618,732.688L437.388,728.088L436.825,727.627Z" style="fill:rgb(251,210,68);"/>
                </g>
                <g transform="matrix(0.707107,0.707107,-0.863173,0.863173,644.54,-281.653)">
                    <rect x="377.955" y="727.627" width="58.87" height="4.838" style="fill:rgb(251,210,68);"/>
                </g>
            </g>
            <g>
                <path d="M374.942,543.497L326.071,659.473L320.151,656.979L367.971,543.497L374.942,543.497Z" style="fill:rgb(251,210,68);"/>
                <path d="M400.516,543.497L448.221,656.984L442.299,659.473L393.547,543.497L400.516,543.497Z" style="fill:rgb(251,210,68);"/>
                <g transform="matrix(1,0,0,1,156.075,100.689)">
                    <rect x="196.515" y="483.233" width="61.307" height="5.921" style="fill:rgb(251,210,68);"/>
                </g>
                <g transform="matrix(1,0,0,1,4.33542,0.453044)">
                    <path d="M409.561,540.42C409.561,538.972 408.385,537.796 406.937,537.796L355.562,537.796C354.114,537.796 352.938,538.972 352.938,540.42L352.938,545.668C352.938,547.116 354.114,548.292 355.562,548.292L406.937,548.292C408.385,548.292 409.561,547.116 409.561,545.668L409.561,540.42Z" style="fill:rgb(251,210,68);"/>
                </g>
                <g transform="matrix(0.691431,0,0,1,227.018,76.9305)">
                    <rect x="196.515" y="483.233" width="61.307" height="5.921" style="fill:rgb(251,210,68);"/>
                </g>
                <g transform="matrix(1.42947,0,0,1,59.895,128.649)">
                    <rect x="196.515" y="483.233" width="61.307" height="5.921" style="fill:rgb(251,210,68);"/>
                </g>
                <g transform="matrix(1.15582,-0.410571,0.33473,0.942314,-46.5435,234.589)">
                    <rect x="196.515" y="483.233" width="61.307" height="5.921" style="fill:rgb(251,210,68);"/>
                </g>
                <g transform="matrix(1.63558,-0.580992,0.33473,0.942314,-156.978,310.229)">
                    <rect x="196.515" y="483.233" width="61.307" height="5.921" style="fill:rgb(251,210,68);"/>
                </g>
                <g transform="matrix(0.834745,-0.296519,0.33473,0.942314,28.5438,184.216)">
                    <rect x="196.515" y="483.233" width="61.307" height="5.921" style="fill:rgb(251,210,68);"/>
                </g>
            </g>
        </g>
        <g>
            <g transform="matrix(1,0,0,1,87.9683,-0.184316)">
                <g transform="matrix(1.01723,0,0,1.32631,3.95942,-237.894)">
                    <path d="M341.875,731.054C341.875,729.088 339.793,727.491 337.23,727.491L236.354,727.491C233.791,727.491 231.709,729.088 231.709,731.054L231.709,738.179C231.709,740.145 233.791,741.741 236.354,741.741L337.23,741.741C339.793,741.741 341.875,740.145 341.875,738.179L341.875,731.054Z" style="fill:rgb(208,174,57);"/>
                </g>
                <g transform="matrix(1,0,0,1.22015,8.8509,-159.869)">
                    <path d="M341.875,731.054C341.875,729.088 339.927,727.491 337.528,727.491L236.056,727.491C233.657,727.491 231.709,729.088 231.709,731.054L231.709,738.179C231.709,740.145 233.657,741.741 236.056,741.741L337.528,741.741C339.927,741.741 341.875,740.145 341.875,738.179L341.875,731.054Z" style="fill:rgb(251,210,68);"/>
                </g>
                <path d="M240.56,733.907L246.688,727.78L254.81,727.78L240.695,741.895C240.607,741.551 240.56,741.191 240.56,740.82L240.56,733.907Z"/>
                <path d="M261.045,745.167L252.923,745.167L270.31,727.78L278.432,727.78L261.045,745.167Z"/>
                <path d="M272.856,745.167L264.734,745.167L282.121,727.78L290.243,727.78L272.856,745.167Z"/>
                <path d="M284.667,745.167L276.545,745.167L293.932,727.78L302.054,727.78L284.667,745.167Z"/>
                <path d="M296.478,745.167L288.356,745.167L305.743,727.78L313.865,727.78L296.478,745.167Z"/>
                <path d="M308.289,745.167L300.167,745.167L317.554,727.78L325.676,727.78L308.289,745.167Z"/>
                <path d="M320.1,745.167L311.978,745.167L329.365,727.78L337.487,727.78L320.1,745.167Z"/>
                <path d="M346.379,727.78C347.213,727.78 347.992,728.015 348.655,728.423L331.911,745.167L323.789,745.167L341.176,727.78L346.379,727.78Z"/>
                <path d="M350.368,730.399C350.598,730.929 350.726,731.513 350.726,732.127L350.726,738.163L343.722,745.167L335.6,745.167L350.368,730.399Z"/>
                <path d="M242.122,744.156L258.499,727.78L266.621,727.78L249.234,745.167L244.907,745.167C243.848,745.167 242.877,744.787 242.122,744.156Z"/>
            </g>
            <g transform="matrix(1,0,0,1,88.9497,-0.0314379)">
                <rect x="246.704" y="640.362" width="41.614" height="86.467" style="fill:rgb(208,174,57);"/>
                <path d="M288.318,640.362L322.808,651.246L347.673,697.555L338.633,726.829L288.318,727.627L288.318,640.362Z" style="fill:rgb(251,210,68);"/>
                <path d="M294.712,649.232L322.808,661.428L340.846,696.436L337.329,708.661L294.712,708.661L294.712,649.232Z" style="fill:rgb(38,185,217);"/>
                <path d="M294.712,652.354L294.712,649.232L322.808,661.428L340.846,696.436L337.329,708.661L334.409,708.661L337.452,698.085L319.414,663.078L294.712,652.354Z" style="fill:rgb(32,148,172);"/>
                <g transform="matrix(1,0,0,1.15308,-0.00511348,-107.722)">
                    <rect x="254.242" y="656.463" width="26.548" height="51.54" style="fill:rgb(38,185,217);"/>
                </g>
                <path d="M280.785,708.661L276.11,708.661L276.11,653.881L254.237,653.881L254.237,649.232L280.785,649.232L280.785,708.661Z" style="fill:rgb(32,148,172);"/>
            </g>
        </g>
    </g>
    <g>
        <g transform="matrix(1,0,0,1,43.0337,-57.4616)">
            <path d="M391.376,379.556C390.883,377.518 390.624,375.401 390.624,373.229C390.624,357.002 405.121,343.828 422.978,343.828C424.016,343.828 425.043,343.873 426.056,343.96C431.235,333.989 442.403,327.083 455.333,327.083C468.262,327.083 479.43,333.989 484.609,343.96C485.622,343.873 486.649,343.828 487.687,343.828C498.897,343.828 508.783,349.02 514.59,356.9C516.362,356.626 518.184,356.483 520.042,356.483C535.508,356.483 548.455,366.366 551.643,379.556L391.376,379.556Z" style="fill:white;"/>
        </g>
        <g transform="matrix(1,0,0,1,249.678,238.7)">
            <path d="M820.234,295.858C820.165,295.561 820.102,295.262 820.047,294.959C818.123,284.526 825.03,274.494 835.463,272.57C836.507,272.378 837.548,272.274 838.576,272.253C840.999,266.465 846.203,261.973 852.829,260.751C856.087,260.15 859.307,260.411 862.253,261.371C864.662,259.423 867.577,258.031 870.836,257.43C874.464,256.761 878.044,257.16 881.251,258.404C883.803,256.098 887.005,254.448 890.634,253.779C901.066,251.855 911.098,258.763 913.022,269.195C913.58,272.219 913.396,275.21 912.598,277.979C913.238,277.802 913.892,277.652 914.559,277.529C925.486,275.514 935.787,281.63 937.548,291.179C937.838,292.754 937.878,294.324 937.694,295.858L820.234,295.858Z" style="fill:white;"/>
        </g>
    </g>
    <g transform="matrix(1,0,0,1,-8.29575,3.00956)">
        <path d="M1435.77,0L1435.77,1417.32L-80.288,1417.32L-80.288,0L1435.77,0ZM704.401,136.283C1051.71,136.283 1333.68,420.627 1333.68,770.86C1333.68,1121.09 1051.71,1405.44 704.401,1405.44C357.092,1405.44 75.12,1121.09 75.12,770.86C75.12,420.627 357.092,136.283 704.401,136.283Z" style="fill:rgb(255,253,234);"/>
    </g>
    <g transform="matrix(1.4571,0,0,1.4571,205.286,39.2496)">
        <text x="155.608px" y="44.916px" style="font-family:'Futura-Medium', 'Futura', sans-serif;font-weight:500;font-size:50px;fill:rgb(99,150,171);stroke:rgb(99,150,171);stroke-width:0.69px;">Constr<tspan x="301.531px 328.777px " y="44.916px 44.916px ">uc</tspan>tion Sit<tspan x="507.342px " y="44.916px ">e</tspan></text>
    </g>
</svg>
